Moderustic-Medium.ufo
<glyph name="V" format="2">
  <advance width="655"/>
  <unicode hex="0056"/>
  <anchor x="328" y="719" name="top"/>
  <anchor x="328" y="-20" name="bottom"/>
  <outline>
    <contour>
      <point x="298" y="0" type="line"/>
      <point x="406" y="0" type="line"/>
      <point x="633" y="700" type="line"/>
      <point x="507" y="700" type="line"/>
    </contour>
    <contour>
      <point x="249" y="0" type="line"/>
      <point x="357" y="0" type="line"/>
      <point x="148" y="700" type="line"/>
      <point x="22" y="700" type="line"/>
    </contour>
  </outline>
</glyph>
<glyph name="h" format="2">
  <advance width="606"/>
  <unicode hex="0068"/>
  <anchor x="308" y="-20" name="bottom"/>
  <anchor x="134" y="750" name="top"/>
  <outline>
    <contour>
      <point x="74" y="0" type="line" name="ab03"/>
      <point x="194" y="0" type="line"/>
      <point x="194" y="750" type="line" name="ab01"/>
      <point x="74" y="750" type="line"/>
    </contour>
    <contour>
      <point x="421" y="0" type="line" name="ab01"/>
      <point x="541" y="0" type="line"/>
      <point x="541" y="314" type="line" smooth="yes"/>
      <point x="541" y="458"/>
      <point x="474" y="520"/>
      <point x="370" y="520" type="curve" smooth="yes" name="at01"/>
      <point x="277" y="520"/>
      <point x="200" y="452"/>
      <point x="186" y="355" type="curve"/>
      <point x="187" y="280" type="line"/>
      <point x="194" y="217" type="line" name="iv01"/>
      <point x="194" y="345.204"/>
      <point x="242" y="430"/>
      <point x="330" y="430" type="curve" smooth="yes" name="sv01"/>
      <point x="389" y="430"/>
      <point x="421" y="399.86"/>
      <point x="421" y="291.355" type="curve" smooth="yes"/>
    </contour>
  </outline>
</glyph>
<glyph name="Eth" format="2">
  <advance width="732"/>
  <unicode hex="00D0"/>
  <outline>
    <contour>
      <point x="194" y="100" type="line" name="sv01"/>
      <point x="194" y="600" type="line" name="sv02"/>
      <point x="320.635" y="600" type="line" smooth="yes"/>
      <point x="467.056" y="600"/>
      <point x="565" y="499"/>
      <point x="565" y="349" type="curve" smooth="yes"/>
      <point x="565" y="197"/>
      <point x="464.088" y="100"/>
      <point x="320.635" y="100" type="curve" smooth="yes"/>
    </contour>
    <contour>
      <point x="74" y="0" type="line" name="ab01"/>
      <point x="341" y="0" type="line" smooth="yes"/>
      <point x="548" y="0"/>
      <point x="689" y="141"/>
      <point x="689" y="350" type="curve" smooth="yes"/>
      <point x="689" y="558"/>
      <point x="547" y="700"/>
      <point x="341" y="700" type="curve" smooth="yes" name="at01"/>
      <point x="74" y="700" type="line"/>
    </contour>
    <contour>
      <point x="-0.28" y="336" type="line"/>
      <point x="398.082" y="336" type="line"/>
      <point x="398.082" y="370" type="line"/>
      <point x="-0.28" y="370" type="line"/>
    </contour>
  </outline>
</glyph>
<glyph name="dcroat" format="2">
  <advance width="635"/>
  <unicode hex="0111"/>
  <outline>
    <contour>
      <point x="432" y="0" type="line" name="ab03"/>
      <point x="552" y="0" type="line"/>
      <point x="552" y="750" type="line" name="ab01"/>
      <point x="432" y="750" type="line"/>
    </contour>
    <contour>
      <point x="272" y="-20" type="curve" smooth="yes" name="dv01"/>
      <point x="389" y="-20"/>
      <point x="454" y="78"/>
      <point x="454" y="255" type="curve" smooth="yes"/>
      <point x="454" y="422"/>
      <point x="386" y="520"/>
      <point x="266" y="520" type="curve" smooth="yes" name="at01"/>
      <point x="125" y="520"/>
      <point x="50" y="411"/>
      <point x="50" y="255" type="curve" smooth="yes"/>
      <point x="50" y="99"/>
      <point x="134" y="-20"/>
    </contour>
    <contour>
      <point x="297" y="70" type="curve" smooth="yes" name="dv02"/>
      <point x="219" y="70"/>
      <point x="170" y="142.201"/>
      <point x="170" y="255.515" type="curve" smooth="yes"/>
      <point x="170" y="366.825"/>
      <point x="215" y="430"/>
      <point x="296" y="430" type="curve" smooth="yes" name="sv01"/>
      <point x="375" y="430"/>
      <point x="432" y="357.799"/>
      <point x="432" y="256.518" type="curve" smooth="yes"/>
      <point x="432" y="151.226"/>
      <point x="377" y="70"/>
    </contour>
    <contour>
      <point x="216.455" y="631" type="line"/>
      <point x="627.447" y="631" type="line"/>
      <point x="627.447" y="665" type="line"/>
      <point x="216.455" y="665" type="line"/>
    </contour>
  </outline>
</glyph>
<glyph name="dotlessi" format="2">
  <advance width="272"/>
  <unicode hex="0131"/>
  <anchor x="136" y="520" name="top"/>
  <anchor x="136" y="-20" name="bottom"/>
  <anchor x="190" y="-2" name="ogonek"/>
  <outline>
    <contour>
      <point x="76" y="0" type="line" name="ab01"/>
      <point x="196" y="0" type="line"/>
      <point x="196" y="500" type="line"/>
      <point x="76" y="500" type="line" name="av01"/>
    </contour>
  </outline>
</glyph>
<glyph name="caroncomb" format="2">
  <advance width="346"/>
  <unicode hex="030C"/>
  <anchor x="173" y="702" name="top"/>
  <anchor x="173" y="500" name="_top"/>
  <outline>
    <contour>
      <point x="129" y="550" type="line"/>
      <point x="217" y="550" type="line"/>
      <point x="319" y="701" type="line"/>
      <point x="234" y="701" type="line"/>
      <point x="173" y="595" type="line"/>
      <point x="112" y="701" type="line"/>
      <point x="27" y="701" type="line"/>
    </contour>
  </outline>
</glyph>
<glyph name="omega" format="2">
  <advance width="794"/>
  <unicode hex="03C9"/>
  <anchor x="397" y="520" name="topgr"/>
  <outline>
    <contour>
      <point x="337" y="361" type="line"/>
      <point x="337" y="170" type="line" smooth="yes"/>
      <point x="337" y="106"/>
      <point x="308" y="70"/>
      <point x="258" y="70" type="curve" smooth="yes"/>
      <point x="191" y="70"/>
      <point x="160" y="144"/>
      <point x="160" y="252" type="curve" smooth="yes"/>
      <point x="160" y="342"/>
      <point x="183" y="411"/>
      <point x="234" y="500" type="curve"/>
      <point x="108" y="500" type="line"/>
      <point x="63" y="422"/>
      <point x="40" y="342"/>
      <point x="40" y="253" type="curve" smooth="yes"/>
      <point x="40" y="84"/>
      <point x="120" y="-20"/>
      <point x="249" y="-20" type="curve" smooth="yes"/>
      <point x="318" y="-20"/>
      <point x="365" y="10"/>
      <point x="397" y="71" type="curve"/>
      <point x="429" y="10"/>
      <point x="476" y="-20"/>
      <point x="545" y="-20" type="curve" smooth="yes"/>
      <point x="674" y="-20"/>
      <point x="754" y="84"/>
      <point x="754" y="251" type="curve" smooth="yes"/>
      <point x="754" y="342"/>
      <point x="730" y="429"/>
      <point x="690" y="500" type="curve"/>
      <point x="560" y="500" type="line"/>
      <point x="603" y="430"/>
      <point x="634" y="353"/>
      <point x="634" y="249" type="curve" smooth="yes"/>
      <point x="634" y="143"/>
      <point x="604" y="70"/>
      <point x="536" y="70" type="curve" smooth="yes"/>
      <point x="485" y="70"/>
      <point x="457" y="106"/>
      <point x="457" y="170" type="curve" smooth="yes"/>
      <point x="457" y="361" type="line"/>
    </contour>
  </outline>
</glyph>
<glyph name="Ucyr" format="2">
  <advance width="612"/>
  <unicode hex="0423"/>
  <anchor x="306" y="719" name="top"/>
  <anchor x="317" y="-20" name="bottom"/>
  <outline>
    <contour>
      <point x="80" y="-70" type="line"/>
      <point x="217" y="-70"/>
      <point x="295" y="-54"/>
      <point x="329" y="36" type="curve" smooth="yes"/>
      <point x="584" y="700" type="line"/>
      <point x="455" y="700" type="line"/>
      <point x="253" y="118" type="line" smooth="yes"/>
      <point x="228.936" y="48.668"/>
      <point x="162" y="30"/>
      <point x="80" y="30" type="curve"/>
    </contour>
    <contour>
      <point x="233" y="138" type="line"/>
      <point x="310" y="138" type="line"/>
      <point x="339" y="142" type="line"/>
      <point x="157" y="700" type="line"/>
      <point x="28" y="700" type="line"/>
    </contour>
  </outline>
</glyph>
<glyph name="Yacyr" format="2">
  <advance width="648"/>
  <unicode hex="042F"/>
  <anchor x="324" y="719" name="top"/>
  <anchor x="324" y="-20" name="bottom"/>
  <outline>
    <contour>
      <point x="462" y="0" type="line"/>
      <point x="582" y="0" type="line"/>
      <point x="582" y="700" type="line"/>
      <point x="304.227" y="700" type="line" smooth="yes"/>
      <point x="143.735" y="700"/>
      <point x="46" y="617"/>
      <point x="46" y="479" type="curve" smooth="yes"/>
      <point x="46" y="342"/>
      <point x="142.826" y="254"/>
      <point x="303.515" y="254" type="curve" smooth="yes"/>
      <point x="560" y="254" type="line"/>
      <point x="560" y="354" type="line"/>
      <point x="345.847" y="354" type="line" smooth="yes"/>
      <point x="207.583" y="354"/>
      <point x="166" y="389"/>
      <point x="166" y="478" type="curve" smooth="yes"/>
      <point x="166" y="565"/>
      <point x="206.028" y="600"/>
      <point x="346.128" y="600" type="curve" smooth="yes"/>
      <point x="462" y="600" type="line"/>
    </contour>
    <contour>
      <point x="43" y="0" type="line"/>
      <point x="178" y="0" type="line"/>
      <point x="341" y="281" type="line"/>
      <point x="233" y="333" type="line"/>
    </contour>
  </outline>
</glyph>
<glyph name="emcyr" format="2">
  <advance width="689"/>
  <unicode hex="043C"/>
  <outline>
    <contour>
      <point x="70" y="0" type="line"/>
      <point x="180" y="0" type="line"/>
      <point x="180" y="314" type="line"/>
      <point x="304" y="100" type="line"/>
      <point x="385" y="100" type="line"/>
      <point x="509" y="314" type="line"/>
      <point x="509" y="0" type="line"/>
      <point x="619" y="0" type="line"/>
      <point x="619" y="500" type="line"/>
      <point x="513" y="500" type="line"/>
      <point x="344" y="209" type="line"/>
      <point x="175" y="500" type="line"/>
      <point x="70" y="500" type="line"/>
    </contour>
  </outline>
</glyph>
<glyph name="shacyr" format="2">
  <advance width="859"/>
  <unicode hex="0448"/>
  <outline>
    <contour>
      <point x="70" y="0" type="line"/>
      <point x="789" y="0" type="line"/>
      <point x="789" y="500" type="line"/>
      <point x="669" y="500" type="line"/>
      <point x="669" y="100" type="line"/>
      <point x="490" y="100" type="line"/>
      <point x="490" y="500" type="line"/>
      <point x="370" y="500" type="line"/>
      <point x="370" y="100" type="line"/>
      <point x="190" y="100" type="line"/>
      <point x="190" y="500" type="line"/>
      <point x="70" y="500" type="line"/>
    </contour>
  </outline>
</glyph>
<glyph name="hardcyr" format="2">
  <advance width="580"/>
  <unicode hex="044A"/>
  <outline>
    <contour>
      <point x="11" y="410" type="line"/>
      <point x="169" y="410" type="line"/>
      <point x="202" y="496" type="line"/>
      <point x="202" y="500" type="line"/>
      <point x="11" y="500" type="line"/>
    </contour>
    <contour>
      <point x="134" y="0" type="line"/>
      <point x="364" y="0" type="line" smooth="yes"/>
      <point x="479" y="0"/>
      <point x="550" y="69"/>
      <point x="550" y="177.277" type="curve" smooth="yes"/>
      <point x="550" y="282.369"/>
      <point x="479" y="345"/>
      <point x="361" y="345" type="curve" smooth="yes"/>
      <point x="169" y="345" type="line"/>
      <point x="169" y="255" type="line"/>
      <point x="346" y="255" type="line" smooth="yes"/>
      <point x="405" y="255"/>
      <point x="430" y="224.063"/>
      <point x="430" y="172.5" type="curve" smooth="yes"/>
      <point x="430" y="120.938"/>
      <point x="404" y="90"/>
      <point x="345" y="90" type="curve" smooth="yes"/>
      <point x="254" y="90" type="line"/>
      <point x="254" y="500" type="line"/>
      <point x="134" y="500" type="line"/>
    </contour>
  </outline>
</glyph>
<glyph name="yukrcyr" format="2">
  <advance width="272"/>
  <unicode hex="0457"/>
  <anchor x="136" y="-20" name="bottom"/>
  <anchor x="190" y="-2" name="ogonek"/>
  <anchor x="136" y="667" name="top"/>
  <outline>
    <contour>
      <point x="76" y="0" type="line" name="ab01"/>
      <point x="196" y="0" type="line"/>
      <point x="196" y="500" type="line"/>
      <point x="76" y="500" type="line" name="av01"/>
    </contour>
    <contour>
      <point x="-27.347" y="636" type="curve" smooth="yes"/>
      <point x="-27.347" y="609.653"/>
      <point x="-6.646" y="577.661"/>
      <point x="34.757" y="577.661" type="curve" smooth="yes" name="dv01"/>
      <point x="74.277" y="577.661"/>
      <point x="93.037" y="606.83"/>
      <point x="93.037" y="636" type="curve" smooth="yes"/>
      <point x="93.037" y="667.052"/>
      <point x="74.277" y="694.339"/>
      <point x="34.757" y="694.339" type="curve" smooth="yes" name="dv02"/>
      <point x="-6.646" y="694.339"/>
      <point x="-27.347" y="663.288"/>
    </contour>
    <contour>
      <point x="177.963" y="636" type="curve" smooth="yes"/>
      <point x="177.963" y="609.653"/>
      <point x="198.664" y="577.661"/>
      <point x="240.066" y="577.661" type="curve" smooth="yes" name="dv01.1"/>
      <point x="279.587" y="577.661"/>
      <point x="298.347" y="606.83"/>
      <point x="298.347" y="636" type="curve" smooth="yes"/>
      <point x="298.347" y="667.052"/>
      <point x="279.587" y="694.339"/>
      <point x="240.066" y="694.339" type="curve" smooth="yes" name="dv02.1"/>
      <point x="198.664" y="694.339"/>
      <point x="177.963" y="663.288"/>
    </contour>
  </outline>
</glyph>
<glyph name="njecyr" format="2">
  <advance width="810"/>
  <unicode hex="045A"/>
  <outline>
    <contour>
      <point x="70" y="0" type="line"/>
      <point x="190" y="0" type="line"/>
      <point x="190" y="225" type="line"/>
      <point x="377" y="225" type="line"/>
      <point x="377" y="0" type="line"/>
      <point x="497" y="0" type="line"/>
      <point x="497" y="500" type="line"/>
      <point x="377" y="500" type="line"/>
      <point x="377" y="315" type="line"/>
      <point x="190" y="315" type="line"/>
      <point x="190" y="500" type="line"/>
      <point x="70" y="500" type="line"/>
    </contour>
    <contour>
      <point x="385" y="0" type="line"/>
      <point x="602" y="0" type="line" smooth="yes"/>
      <point x="714" y="0"/>
      <point x="780" y="61.932"/>
      <point x="780" y="164.441" type="curve" smooth="yes"/>
      <point x="780" y="262.678"/>
      <point x="719" y="315"/>
      <point x="602" y="315" type="curve" smooth="yes"/>
      <point x="451" y="315" type="line"/>
      <point x="451" y="225" type="line"/>
      <point x="598" y="225" type="line" smooth="yes"/>
      <point x="639" y="225"/>
      <point x="660" y="202.696"/>
      <point x="660" y="160.435" type="curve" smooth="yes"/>
      <point x="660" y="115.826"/>
      <point x="631" y="90"/>
      <point x="583" y="90" type="curve" smooth="yes"/>
      <point x="495" y="90" type="line"/>
      <point x="495" y="500" type="line"/>
      <point x="385" y="500" type="line"/>
    </contour>
  </outline>
</glyph>
<glyph name="Geupcyr" format="2">
  <advance width="557"/>
  <unicode hex="0490"/>
  <outline>
    <contour>
      <point x="87" y="0" type="line"/>
      <point x="207" y="0" type="line"/>
      <point x="207" y="600" type="line"/>
      <point x="360" y="600" type="line" smooth="yes"/>
      <point x="490" y="600"/>
      <point x="527" y="654"/>
      <point x="527" y="814" type="curve"/>
      <point x="427" y="814" type="line"/>
      <point x="427" y="720"/>
      <point x="407" y="700"/>
      <point x="357" y="700" type="curve" smooth="yes"/>
      <point x="87" y="700" type="line"/>
    </contour>
  </outline>
</glyph>
<glyph name="summation" format="2">
  <advance width="662"/>
  <unicode hex="2211"/>
  <outline>
    <contour>
      <point x="30" y="-125" type="line"/>
      <point x="621" y="-125" type="line"/>
      <point x="621" y="-25" type="line"/>
      <point x="212" y="-25" type="line"/>
      <point x="504" y="282" type="line"/>
      <point x="212" y="600" type="line"/>
      <point x="621" y="600" type="line"/>
      <point x="621" y="700" type="line"/>
      <point x="30" y="700" type="line"/>
      <point x="30" y="630" type="line"/>
      <point x="347" y="282" type="line"/>
      <point x="30" y="-55" type="line"/>
    </contour>
  </outline>
</glyph>
<glyph name="Ccedilla.ss09" format="2">
  <advance width="753"/>
  <anchor x="377" y="719" name="top"/>
  <anchor x="377" y="-217" name="bottom"/>
  <outline>
    <contour>
      <point x="590" y="261" type="line"/>
      <point x="580" y="152"/>
      <point x="497" y="80"/>
      <point x="387" y="80" type="curve" smooth="yes"/>
      <point x="250" y="80"/>
      <point x="163" y="192"/>
      <point x="163" y="354" type="curve" smooth="yes"/>
      <point x="163" y="511"/>
      <point x="244" y="620"/>
      <point x="382" y="620" type="curve" smooth="yes"/>
      <point x="474" y="620"/>
      <point x="551" y="571"/>
      <point x="580" y="485" type="curve"/>
      <point x="700" y="485" type="line"/>
      <point x="653" y="637"/>
      <point x="547" y="720"/>
      <point x="391" y="720" type="curve" smooth="yes"/>
      <point x="180" y="720"/>
      <point x="43" y="568"/>
      <point x="43" y="355" type="curve" smooth="yes"/>
      <point x="43" y="142"/>
      <point x="180" y="-20"/>
      <point x="389" y="-20" type="curve" smooth="yes"/>
      <point x="556" y="-20"/>
      <point x="673" y="84"/>
      <point x="710" y="261" type="curve"/>
    </contour>
    <contour>
      <point x="270" y="-204" type="line"/>
      <point x="296" y="-210"/>
      <point x="325" y="-217"/>
      <point x="366" y="-217" type="curve" smooth="yes"/>
      <point x="449" y="-217"/>
      <point x="496" y="-188"/>
      <point x="496" y="-135" type="curve" smooth="yes"/>
      <point x="496" y="-88"/>
      <point x="460" y="-63"/>
      <point x="400" y="-63" type="curve"/>
      <point x="442.784" y="14.546" type="line"/>
      <point x="369.784" y="14.546" type="line"/>
      <point x="317" y="-89" type="line"/>
      <point x="332" y="-87"/>
      <point x="343" y="-85"/>
      <point x="356" y="-85" type="curve" smooth="yes"/>
      <point x="391" y="-85"/>
      <point x="412" y="-100"/>
      <point x="412" y="-129" type="curve" smooth="yes"/>
      <point x="412" y="-157"/>
      <point x="392" y="-176"/>
      <point x="356" y="-176" type="curve" smooth="yes"/>
      <point x="338" y="-176"/>
      <point x="310" y="-171"/>
      <point x="289" y="-165" type="curve"/>
    </contour>
  </outline>
</glyph>
<glyph name="Ccedilla.ss12" format="2">
  <advance width="649"/>
  <anchor x="347" y="719" name="top"/>
  <anchor x="347" y="-217" name="bottom"/>
  <outline>
    <contour>
      <point x="597.705" y="170.742" type="line"/>
      <point x="521.978" y="110.376"/>
      <point x="449.458" y="78.933"/>
      <point x="368" y="78.933" type="curve" smooth="yes"/>
      <point x="219" y="78.933"/>
      <point x="163" y="182.328"/>
      <point x="163" y="345.953" type="curve" smooth="yes"/>
      <point x="163" y="513.594"/>
      <point x="213.684" y="619.699"/>
      <point x="362.684" y="619.699" type="curve" smooth="yes"/>
      <point x="444.142" y="619.699"/>
      <point x="521.978" y="587.855"/>
      <point x="597.705" y="528.19" type="curve"/>
      <point x="605.812" y="611.727" type="line"/>
      <point x="570.285" y="665.201"/>
      <point x="473.983" y="720"/>
      <point x="359" y="720" type="curve" smooth="yes"/>
      <point x="159" y="720"/>
      <point x="43" y="572"/>
      <point x="43" y="349" type="curve" smooth="yes"/>
      <point x="43" y="126"/>
      <point x="159" y="-21.067"/>
      <point x="359" y="-21.067" type="curve" smooth="yes"/>
      <point x="473.983" y="-21.067"/>
      <point x="570.285" y="33.731"/>
      <point x="605.812" y="87.206" type="curve"/>
    </contour>
    <contour>
      <point x="240" y="-204" type="line"/>
      <point x="266" y="-210"/>
      <point x="295" y="-217"/>
      <point x="336" y="-217" type="curve" smooth="yes"/>
      <point x="419" y="-217"/>
      <point x="466" y="-188"/>
      <point x="466" y="-135" type="curve" smooth="yes"/>
      <point x="466" y="-88"/>
      <point x="430" y="-63"/>
      <point x="370" y="-63" type="curve"/>
      <point x="412.784" y="14.546" type="line"/>
      <point x="339.784" y="14.546" type="line"/>
      <point x="287" y="-89" type="line"/>
      <point x="302" y="-87"/>
      <point x="313" y="-85"/>
      <point x="326" y="-85" type="curve" smooth="yes"/>
      <point x="361" y="-85"/>
      <point x="382" y="-100"/>
      <point x="382" y="-129" type="curve" smooth="yes"/>
      <point x="382" y="-157"/>
      <point x="362" y="-176"/>
      <point x="326" y="-176" type="curve" smooth="yes"/>
      <point x="308" y="-176"/>
      <point x="280" y="-171"/>
      <point x="259" y="-165" type="curve"/>
    </contour>
  </outline>
</glyph>
<glyph name="G.ss12" format="2">
  <advance width="754"/>
  <anchor x="380" y="-19" name="bottom"/>
  <anchor x="380" y="719" name="top"/>
  <outline>
    <contour>
      <point x="348" y="283" type="line"/>
      <point x="606" y="283" type="line"/>
      <point x="651" y="0" type="line"/>
      <point x="701" y="0" type="line"/>
      <point x="701" y="373" type="line"/>
      <point x="348" y="373" type="line"/>
    </contour>
    <contour>
      <point x="596" y="344" type="line"/>
      <point x="596" y="338"/>
      <point x="596" y="305"/>
      <point x="596" y="299" type="curve"/>
      <point x="584" y="162"/>
      <point x="501" y="80"/>
      <point x="380" y="80" type="curve" smooth="yes"/>
      <point x="249" y="80"/>
      <point x="163" y="177"/>
      <point x="163" y="345" type="curve" smooth="yes"/>
      <point x="163" y="509"/>
      <point x="245" y="620"/>
      <point x="400" y="620" type="curve" smooth="yes"/>
      <point x="482" y="620"/>
      <point x="558" y="589"/>
      <point x="643" y="510" type="curve"/>
      <point x="652" y="595" type="line"/>
      <point x="572" y="680"/>
      <point x="484" y="720"/>
      <point x="378" y="720" type="curve" smooth="yes"/>
      <point x="172" y="720"/>
      <point x="43" y="570"/>
      <point x="43" y="352" type="curve" smooth="yes"/>
      <point x="43" y="140"/>
      <point x="166" y="-20"/>
      <point x="361" y="-20" type="curve" smooth="yes"/>
      <point x="556" y="-20"/>
      <point x="619" y="140"/>
      <point x="638" y="230" type="curve"/>
      <point x="632" y="348" type="line"/>
    </contour>
  </outline>
</glyph>
<glyph name="Germandbls.ss12" format="2">
  <advance width="693"/>
  <outline>
    <contour>
      <point x="625.937" y="626.329" type="line"/>
      <point x="544.434" y="685.669"/>
      <point x="440.051" y="720"/>
      <point x="335.669" y="720" type="curve" smooth="yes"/>
      <point x="161.056" y="720"/>
      <point x="66" y="623"/>
      <point x="66" y="489" type="curve" smooth="yes"/>
      <point x="66" y="0" type="line"/>
      <point x="186" y="0" type="line"/>
      <point x="186" y="462" type="line" smooth="yes"/>
      <point x="186" y="567"/>
      <point x="241.679" y="619"/>
      <point x="332.692" y="619" type="curve" smooth="yes"/>
      <point x="393.294" y="619"/>
      <point x="434.689" y="602.343"/>
      <point x="458.428" y="586.433" type="curve"/>
      <point x="489.818" y="642.391" type="line"/>
      <point x="413" y="549" type="line" smooth="yes"/>
      <point x="368.97" y="495.471"/>
      <point x="328" y="458"/>
      <point x="328" y="398.054" type="curve" smooth="yes"/>
      <point x="328" y="262"/>
      <point x="539.043" y="247.929"/>
      <point x="539" y="141.325" type="curve" smooth="yes"/>
      <point x="538.983" y="99"/>
      <point x="505.706" y="80"/>
      <point x="461.02" y="80" type="curve" smooth="yes"/>
      <point x="388.549" y="80"/>
      <point x="339.12" y="95.721"/>
      <point x="277.441" y="158.927" type="curve"/>
      <point x="266.296" y="80" type="line"/>
      <point x="314.523" y="12"/>
      <point x="376.95" y="-20"/>
      <point x="474.413" y="-20" type="curve" smooth="yes"/>
      <point x="593.189" y="-20"/>
      <point x="660" y="36.438"/>
      <point x="660" y="135.653" type="curve" smooth="yes"/>
      <point x="660" y="318.447"/>
      <point x="448" y="312"/>
      <point x="448" y="414" type="curve" smooth="yes"/>
      <point x="448" y="443"/>
      <point x="472.669" y="466.487"/>
      <point x="497" y="495" type="curve" smooth="yes"/>
      <point x="646.992" y="670.772" type="line"/>
    </contour>
  </outline>
</glyph>
<glyph name="J.ss10" format="2">
  <advance width="558"/>
  <anchor x="436" y="719" name="top"/>
  <anchor x="257" y="-20" name="bottom"/>
  <outline>
    <contour>
      <point x="22" y="107" type="line"/>
      <point x="79" y="28"/>
      <point x="154" y="-20"/>
      <point x="260" y="-20" type="curve" smooth="yes"/>
      <point x="413" y="-20"/>
      <point x="494" y="81"/>
      <point x="494" y="242" type="curve" smooth="yes"/>
      <point x="494" y="700" type="line"/>
      <point x="374" y="700" type="line"/>
      <point x="374" y="253.279" type="line" smooth="yes"/>
      <point x="374" y="135.089"/>
      <point x="332" y="80"/>
      <point x="248" y="80" type="curve" smooth="yes"/>
      <point x="177" y="80"/>
      <point x="119" y="119.253"/>
      <point x="61" y="235" type="curve"/>
    </contour>
  </outline>
</glyph>
<glyph name="R.ss08" format="2">
  <advance width="635"/>
  <anchor x="323" y="719" name="top"/>
  <anchor x="323" y="-20" name="bottom"/>
  <outline>
    <contour>
      <point x="78" y="0" type="line"/>
      <point x="198" y="0" type="line"/>
      <point x="198" y="244" type="line"/>
      <point x="324" y="244" type="line" smooth="yes"/>
      <point x="475" y="244"/>
      <point x="566" y="341"/>
      <point x="566" y="474" type="curve" smooth="yes"/>
      <point x="566" y="611"/>
      <point x="474" y="700"/>
      <point x="330" y="700" type="curve" smooth="yes"/>
      <point x="78" y="700" type="line"/>
    </contour>
    <contour>
      <point x="198" y="344" type="line"/>
      <point x="198" y="600" type="line"/>
      <point x="294" y="600" type="line" smooth="yes"/>
      <point x="394" y="600"/>
      <point x="445" y="555"/>
      <point x="445" y="469" type="curve" smooth="yes"/>
      <point x="445" y="383"/>
      <point x="394" y="344"/>
      <point x="294" y="344" type="curve" smooth="yes"/>
    </contour>
    <contour>
      <point x="306" y="244" type="line"/>
      <point x="359" y="242"/>
      <point x="411" y="232"/>
      <point x="432" y="183" type="curve" smooth="yes"/>
      <point x="449" y="143"/>
      <point x="432" y="70"/>
      <point x="457" y="0" type="curve"/>
      <point x="580" y="0" type="line"/>
      <point x="550" y="66"/>
      <point x="570" y="171"/>
      <point x="545" y="222" type="curve" smooth="yes"/>
      <point x="520" y="273"/>
      <point x="478" y="287"/>
      <point x="382" y="313" type="curve"/>
    </contour>
  </outline>
</glyph>
<glyph name="ae.ss14" format="2">
  <advance width="853"/>
  <anchor x="414" y="500" name="top"/>
  <anchor x="414" y="0" name="bottom"/>
  <outline>
    <contour>
      <point x="70.91" y="318" type="line"/>
      <point x="135.185" y="410"/>
      <point x="181.226" y="430"/>
      <point x="241.59" y="430" type="curve" smooth="yes"/>
      <point x="309.117" y="430"/>
      <point x="342.88" y="405.168"/>
      <point x="342.88" y="361.463" type="curve" smooth="yes"/>
      <point x="342.88" y="313.785"/>
      <point x="305.864" y="282"/>
      <point x="213.325" y="282" type="curve" smooth="yes"/>
      <point x="98.381" y="282"/>
      <point x="24.35" y="232.837"/>
      <point x="24.35" y="135.515" type="curve" smooth="yes"/>
      <point x="24.35" y="38.193"/>
      <point x="98.205" y="-20"/>
      <point x="188.822" y="-20" type="curve" smooth="yes"/>
      <point x="268.92" y="-20"/>
      <point x="344.177" y="25.482"/>
      <point x="381.13" y="97.12" type="curve"/>
      <point x="422.24" y="23.62"/>
      <point x="496.02" y="-20"/>
      <point x="594.75" y="-20" type="curve" smooth="yes"/>
      <point x="683.2" y="-20"/>
      <point x="756" y="15"/>
      <point x="798.15" y="74" type="curve"/>
      <point x="768.39" y="182" type="line"/>
      <point x="724.219" y="93.41"/>
      <point x="667.998" y="70"/>
      <point x="597.24" y="70" type="curve" smooth="yes"/>
      <point x="521.696" y="70"/>
      <point x="459.54" y="118"/>
      <point x="459.54" y="228" type="curve"/>
      <point x="813.99" y="228" type="line"/>
      <point x="826.639" y="406.57"/>
      <point x="728.25" y="520"/>
      <point x="582.63" y="520" type="curve" smooth="yes"/>
      <point x="512.867" y="520"/>
      <point x="454.7" y="498.09"/>
      <point x="414.36" y="460.06" type="curve"/>
      <point x="379.334" y="498.44"/>
      <point x="322.548" y="520"/>
      <point x="247.669" y="520" type="curve" smooth="yes"/>
      <point x="137.427" y="520"/>
      <point x="73.038" y="472"/>
      <point x="40.84" y="426" type="curve"/>
    </contour>
    <contour>
      <point x="342.885" y="186" type="line" smooth="yes"/>
      <point x="342.885" y="129"/>
      <point x="286.688" y="70"/>
      <point x="216.926" y="70" type="curve" smooth="yes"/>
      <point x="171.386" y="70"/>
      <point x="141.35" y="96"/>
      <point x="141.35" y="137" type="curve" smooth="yes"/>
      <point x="141.35" y="175"/>
      <point x="168.476" y="202"/>
      <point x="225.633" y="202" type="curve" smooth="yes"/>
      <point x="275.041" y="202"/>
      <point x="324.448" y="222"/>
      <point x="342.885" y="253" type="curve"/>
    </contour>
    <contour>
      <point x="459.885" y="308" type="line"/>
      <point x="459.885" y="378"/>
      <point x="510.744" y="430"/>
      <point x="579.818" y="430" type="curve" smooth="yes"/>
      <point x="648.901" y="430"/>
      <point x="693.99" y="378"/>
      <point x="693.99" y="308" type="curve"/>
    </contour>
  </outline>
</glyph>
<glyph name="austral.osf" format="2">
  <advance width="718"/>
  <outline>
    <contour>
      <point x="27" y="143" type="line"/>
      <point x="692" y="143" type="line"/>
      <point x="692" y="193" type="line"/>
      <point x="27" y="193" type="line"/>
    </contour>
    <contour>
      <point x="27" y="244" type="line"/>
      <point x="692" y="244" type="line"/>
      <point x="692" y="294" type="line"/>
      <point x="27" y="294" type="line"/>
    </contour>
    <contour>
      <point x="104" y="0" type="line"/>
      <point x="233" y="0" type="line"/>
      <point x="359" y="422" type="line"/>
      <point x="485" y="0" type="line"/>
      <point x="614" y="0" type="line"/>
      <point x="437" y="540" type="line"/>
      <point x="281" y="540" type="line"/>
    </contour>
  </outline>
</glyph>
<glyph name="cent.ss12" format="2">
  <advance width="570"/>
  <outline>
    <contour>
      <point x="285" y="610" type="line"/>
      <point x="335" y="610" type="line"/>
      <point x="335" y="730" type="line"/>
      <point x="285" y="730" type="line"/>
    </contour>
    <contour>
      <point x="286" y="-31" type="line"/>
      <point x="334" y="-31" type="line"/>
      <point x="334" y="90" type="line"/>
      <point x="286" y="89" type="line"/>
    </contour>
    <contour>
      <point x="503" y="255" type="line"/>
      <point x="444" y="198"/>
      <point x="385" y="171"/>
      <point x="320" y="171" type="curve" smooth="yes"/>
      <point x="224" y="171"/>
      <point x="179" y="244"/>
      <point x="179" y="356" type="curve" smooth="yes"/>
      <point x="179" y="466"/>
      <point x="220" y="531"/>
      <point x="319" y="531" type="curve" smooth="yes"/>
      <point x="379" y="531"/>
      <point x="427" y="512"/>
      <point x="504" y="458" type="curve"/>
      <point x="511" y="532" type="line"/>
      <point x="459" y="591"/>
      <point x="391" y="621"/>
      <point x="311" y="621" type="curve" smooth="yes"/>
      <point x="151" y="621"/>
      <point x="59" y="512"/>
      <point x="59" y="356" type="curve" smooth="yes"/>
      <point x="59" y="192"/>
      <point x="157" y="81"/>
      <point x="312.057" y="81" type="curve" smooth="yes"/>
      <point x="394" y="81"/>
      <point x="452" y="112"/>
      <point x="510" y="181" type="curve"/>
    </contour>
  </outline>
</glyph>
<glyph name="d.ss11" format="2">
  <advance width="597"/>
  <anchor x="295" y="-20" name="bottom"/>
  <anchor x="308" y="750" name="top"/>
  <anchor x="577" y="700" name="topright"/>
  <outline>
    <contour>
      <point x="542" y="-10" type="line"/>
      <point x="542" y="700" type="line"/>
      <point x="422" y="700" type="line"/>
      <point x="422" y="104" type="line"/>
    </contour>
    <contour>
      <point x="279" y="70" type="curve" smooth="yes"/>
      <point x="210" y="70"/>
      <point x="160" y="142.201"/>
      <point x="160" y="255.515" type="curve" smooth="yes"/>
      <point x="160" y="364.819"/>
      <point x="209" y="430"/>
      <point x="280" y="430" type="curve" smooth="yes"/>
      <point x="370" y="430"/>
      <point x="422" y="361.811"/>
      <point x="422" y="256.518" type="curve" smooth="yes"/>
      <point x="422" y="145.209"/>
      <point x="364" y="70"/>
    </contour>
    <contour>
      <point x="258" y="-20" type="curve" smooth="yes"/>
      <point x="384" y="-20"/>
      <point x="444" y="84"/>
      <point x="444" y="255" type="curve" smooth="yes"/>
      <point x="444" y="426"/>
      <point x="379" y="520"/>
      <point x="258" y="520" type="curve" smooth="yes"/>
      <point x="123" y="520"/>
      <point x="40" y="419"/>
      <point x="40" y="255" type="curve" smooth="yes"/>
      <point x="40" y="88"/>
      <point x="126" y="-20"/>
    </contour>
  </outline>
</glyph>
<glyph name="decyr.ss08" format="2">
  <advance width="741"/>
  <outline>
    <contour>
      <point x="128" y="86" type="line"/>
      <point x="254" y="86" type="line"/>
      <point x="371" y="406" type="line"/>
      <point x="488" y="86" type="line"/>
      <point x="613" y="86" type="line"/>
      <point x="444" y="500" type="line"/>
      <point x="297" y="500" type="line"/>
    </contour>
    <contour>
      <point x="122" y="-140" type="line"/>
      <point x="123" y="-107"/>
      <point x="108" y="0"/>
      <point x="168" y="0" type="curve" smooth="yes"/>
      <point x="568" y="0" type="line" smooth="yes"/>
      <point x="635" y="0"/>
      <point x="620" y="-102"/>
      <point x="620" y="-140" type="curve"/>
      <point x="716" y="-140" type="line"/>
      <point x="716" y="34"/>
      <point x="695" y="91"/>
      <point x="597" y="91" type="curve" smooth="yes"/>
      <point x="144" y="91" type="line" smooth="yes"/>
      <point x="46" y="91"/>
      <point x="25" y="34"/>
      <point x="25" y="-140" type="curve"/>
    </contour>
  </outline>
</glyph>
<glyph name="dotlessi.ss11" format="2">
  <advance width="370"/>
  <anchor x="185" y="520" name="top"/>
  <anchor x="185" y="-20" name="bottom"/>
  <anchor x="339" y="-2" name="ogonek"/>
  <outline>
    <contour>
      <point x="125" y="0" type="line" name="ab01"/>
      <point x="245" y="0" type="line"/>
      <point x="245" y="500" type="line"/>
      <point x="125" y="500" type="line" name="av01"/>
    </contour>
    <contour>
      <point x="25" y="410" type="line"/>
      <point x="345" y="410" type="line"/>
      <point x="345" y="500" type="line"/>
      <point x="25" y="500" type="line"/>
    </contour>
    <contour>
      <point x="25" y="0" type="line"/>
      <point x="345" y="0" type="line"/>
      <point x="345" y="90" type="line"/>
      <point x="25" y="90" type="line"/>
    </contour>
  </outline>
</glyph>
<glyph name="ereversedcyr.ss10" format="2">
  <advance width="537"/>
  <anchor x="264" y="520" name="top"/>
  <anchor x="264" y="-20" name="bottom"/>
  <outline>
    <contour>
      <point x="30" y="74" type="line"/>
      <point x="74" y="15"/>
      <point x="150" y="-20"/>
      <point x="235" y="-20" type="curve" smooth="yes"/>
      <point x="392" y="-20"/>
      <point x="497" y="91"/>
      <point x="497" y="255" type="curve" smooth="yes"/>
      <point x="497" y="412"/>
      <point x="390" y="520"/>
      <point x="235" y="520" type="curve" smooth="yes"/>
      <point x="150" y="520"/>
      <point x="74" y="485"/>
      <point x="30" y="426" type="curve"/>
      <point x="61" y="318" type="line"/>
      <point x="120" y="402"/>
      <point x="163" y="430"/>
      <point x="234" y="430" type="curve" smooth="yes"/>
      <point x="326" y="430"/>
      <point x="377" y="368"/>
      <point x="377" y="256" type="curve" smooth="yes"/>
      <point x="377" y="145"/>
      <point x="326" y="70"/>
      <point x="236" y="70" type="curve" smooth="yes"/>
      <point x="162" y="70"/>
      <point x="120" y="97"/>
      <point x="61" y="182" type="curve"/>
    </contour>
    <contour>
      <point x="175" y="215" type="line"/>
      <point x="449" y="215" type="line"/>
      <point x="449" y="287" type="line"/>
      <point x="175" y="287" type="line"/>
    </contour>
  </outline>
</glyph>
<glyph name="four.osf" format="2">
  <advance width="685"/>
  <outline>
    <contour>
      <point x="49" y="11" type="line"/>
      <point x="392" y="11" type="line"/>
      <point x="392" y="-150" type="line"/>
      <point x="512" y="-150" type="line"/>
      <point x="512" y="11" type="line"/>
      <point x="644" y="11" type="line"/>
      <point x="644" y="112" type="line"/>
      <point x="512" y="112" type="line"/>
      <point x="512" y="550" type="line"/>
      <point x="375" y="550" type="line"/>
      <point x="49" y="67" type="line"/>
    </contour>
    <contour>
      <point x="202" y="112" type="line"/>
      <point x="392" y="394" type="line"/>
      <point x="392" y="112" type="line"/>
    </contour>
  </outline>
</glyph>
<glyph name="micro.ss01" format="2">
  <advance width="610"/>
  <anchor x="300" y="520" name="topgr"/>
  <outline>
    <contour>
      <point x="64" y="-200" type="line"/>
      <point x="184" y="-200" type="line"/>
      <point x="184" y="500" type="line"/>
      <point x="64" y="500" type="line"/>
    </contour>
    <contour>
      <point x="414" y="215" type="line"/>
      <point x="402" y="283" type="line"/>
      <point x="402" y="145.293"/>
      <point x="356.448" y="70"/>
      <point x="276.189" y="70" type="curve" smooth="yes"/>
      <point x="214.368" y="70"/>
      <point x="184" y="114.792"/>
      <point x="184" y="198.403" type="curve" smooth="yes"/>
      <point x="184" y="500" type="line"/>
      <point x="64" y="500" type="line"/>
      <point x="64" y="196" type="line" smooth="yes"/>
      <point x="64" y="51"/>
      <point x="122.921" y="-20"/>
      <point x="231.621" y="-20" type="curve" smooth="yes"/>
      <point x="327.114" y="-20"/>
      <point x="383.784" y="35"/>
      <point x="414" y="134" type="curve"/>
    </contour>
    <contour>
      <point x="583" y="90" type="line"/>
      <point x="532" y="90"/>
      <point x="522" y="105"/>
      <point x="522" y="167" type="curve" smooth="yes"/>
      <point x="522" y="500" type="line"/>
      <point x="402" y="500" type="line"/>
      <point x="402" y="153" type="line" smooth="yes"/>
      <point x="402" y="47"/>
      <point x="442" y="0"/>
      <point x="549" y="0" type="curve" smooth="yes"/>
      <point x="583" y="0" type="line"/>
    </contour>
  </outline>
</glyph>
<glyph name="nine.osf.ss09" format="2">
  <advance width="650"/>
  <outline>
    <contour>
      <point x="173" y="324" type="curve" smooth="yes"/>
      <point x="173" y="414"/>
      <point x="226" y="469"/>
      <point x="320" y="469" type="curve" smooth="yes"/>
      <point x="415" y="469"/>
      <point x="476" y="409"/>
      <point x="476" y="323" type="curve" smooth="yes"/>
      <point x="476" y="237"/>
      <point x="416" y="186"/>
      <point x="318" y="186" type="curve" smooth="yes"/>
      <point x="225" y="186"/>
      <point x="173" y="235"/>
    </contour>
    <contour>
      <point x="68" y="47" type="line"/>
      <point x="89.798" y="-84"/>
      <point x="167" y="-171"/>
      <point x="314" y="-171" type="curve" smooth="yes"/>
      <point x="497" y="-171"/>
      <point x="610" y="-36"/>
      <point x="610" y="194" type="curve" smooth="yes"/>
      <point x="610" y="431"/>
      <point x="501" y="569"/>
      <point x="309" y="569" type="curve" smooth="yes"/>
      <point x="137" y="569"/>
      <point x="53" y="459"/>
      <point x="53" y="327" type="curve" smooth="yes"/>
      <point x="53" y="172"/>
      <point x="160" y="95"/>
      <point x="302" y="95" type="curve" smooth="yes"/>
      <point x="386" y="95"/>
      <point x="470" y="128"/>
      <point x="511" y="191" type="curve"/>
      <point x="511" y="7"/>
      <point x="433" y="-70"/>
      <point x="314" y="-70" type="curve" smooth="yes"/>
      <point x="240" y="-70"/>
      <point x="202.258" y="-37"/>
      <point x="188" y="47" type="curve"/>
    </contour>
  </outline>
</glyph>
<glyph name="nine.osf.ss10" format="2">
  <advance width="667"/>
  <outline>
    <contour>
      <point x="177" y="326" type="curve" smooth="yes"/>
      <point x="177" y="412"/>
      <point x="231" y="469"/>
      <point x="328" y="469" type="curve" smooth="yes"/>
      <point x="424" y="469"/>
      <point x="482" y="414"/>
      <point x="482" y="327" type="curve" smooth="yes"/>
      <point x="482" y="243"/>
      <point x="427" y="187"/>
      <point x="328" y="187" type="curve" smooth="yes"/>
      <point x="234" y="187"/>
      <point x="177" y="238"/>
    </contour>
    <contour>
      <point x="53" y="-44" type="line"/>
      <point x="122" y="-128"/>
      <point x="211" y="-171"/>
      <point x="321" y="-171" type="curve" smooth="yes"/>
      <point x="509" y="-171"/>
      <point x="614" y="-47"/>
      <point x="614" y="198" type="curve" smooth="yes"/>
      <point x="614" y="439"/>
      <point x="512" y="569"/>
      <point x="323" y="569" type="curve" smooth="yes"/>
      <point x="152" y="569"/>
      <point x="57" y="462"/>
      <point x="57" y="325" type="curve" smooth="yes"/>
      <point x="57" y="178"/>
      <point x="166" y="93"/>
      <point x="313" y="93" type="curve" smooth="yes"/>
      <point x="419.116" y="93"/>
      <point x="495.954" y="138.042"/>
      <point x="523.201" y="213.788" type="curve"/>
      <point x="517.678" y="222.888" type="line"/>
      <point x="523.425" y="23.892"/>
      <point x="452.129" y="-70"/>
      <point x="315" y="-70" type="curve" smooth="yes"/>
      <point x="226" y="-70"/>
      <point x="168" y="-30"/>
      <point x="92" y="84" type="curve"/>
    </contour>
  </outline>
</glyph>
<glyph name="s.ss09" format="2">
  <advance width="510"/>
  <anchor x="255" y="-20" name="bottom"/>
  <anchor x="245" y="520" name="top"/>
  <outline>
    <contour>
      <point x="46" y="150" type="line"/>
      <point x="59" y="40.355"/>
      <point x="135" y="-20"/>
      <point x="261" y="-20" type="curve" smooth="yes"/>
      <point x="383" y="-20"/>
      <point x="452" y="37"/>
      <point x="452" y="135" type="curve" smooth="yes"/>
      <point x="452" y="232"/>
      <point x="384" y="283"/>
      <point x="265" y="301" type="curve" smooth="yes"/>
      <point x="197" y="312"/>
      <point x="166" y="330.154"/>
      <point x="166" y="369.487" type="curve" smooth="yes"/>
      <point x="166" y="406.803"/>
      <point x="193" y="430"/>
      <point x="242" y="430" type="curve" smooth="yes"/>
      <point x="292" y="430"/>
      <point x="323" y="404.684"/>
      <point x="331" y="350" type="curve"/>
      <point x="451" y="350" type="line"/>
      <point x="438" y="459.645"/>
      <point x="362" y="520"/>
      <point x="242" y="520" type="curve" smooth="yes"/>
      <point x="120" y="520"/>
      <point x="46" y="458"/>
      <point x="46" y="361" type="curve" smooth="yes"/>
      <point x="46" y="268"/>
      <point x="113" y="217"/>
      <point x="232" y="199" type="curve" smooth="yes"/>
      <point x="300" y="188"/>
      <point x="331" y="169.846"/>
      <point x="331" y="130.513" type="curve" smooth="yes"/>
      <point x="331" y="93.197"/>
      <point x="304" y="70"/>
      <point x="255" y="70" type="curve" smooth="yes"/>
      <point x="205" y="70"/>
      <point x="175" y="94.295"/>
      <point x="166" y="150" type="curve"/>
    </contour>
  </outline>
</glyph>
<glyph name="scedilla.ss09" format="2">
  <advance width="510"/>
  <anchor x="245" y="520" name="top"/>
  <anchor x="235" y="-218" name="bottom"/>
  <outline>
    <contour>
      <point x="46" y="150" type="line"/>
      <point x="59" y="40.355"/>
      <point x="135" y="-20"/>
      <point x="261" y="-20" type="curve" smooth="yes"/>
      <point x="383" y="-20"/>
      <point x="452" y="37"/>
      <point x="452" y="135" type="curve" smooth="yes"/>
      <point x="452" y="232"/>
      <point x="384" y="283"/>
      <point x="265" y="301" type="curve" smooth="yes"/>
      <point x="197" y="312"/>
      <point x="166" y="330.154"/>
      <point x="166" y="369.487" type="curve" smooth="yes"/>
      <point x="166" y="406.803"/>
      <point x="193" y="430"/>
      <point x="242" y="430" type="curve" smooth="yes"/>
      <point x="292" y="430"/>
      <point x="323" y="404.684"/>
      <point x="331" y="350" type="curve"/>
      <point x="451" y="350" type="line"/>
      <point x="438" y="459.645"/>
      <point x="362" y="520"/>
      <point x="242" y="520" type="curve" smooth="yes"/>
      <point x="120" y="520"/>
      <point x="46" y="458"/>
      <point x="46" y="361" type="curve" smooth="yes"/>
      <point x="46" y="268"/>
      <point x="113" y="217"/>
      <point x="232" y="199" type="curve" smooth="yes"/>
      <point x="300" y="188"/>
      <point x="331" y="169.846"/>
      <point x="331" y="130.513" type="curve" smooth="yes"/>
      <point x="331" y="93.197"/>
      <point x="304" y="70"/>
      <point x="255" y="70" type="curve" smooth="yes"/>
      <point x="205" y="70"/>
      <point x="175" y="94.295"/>
      <point x="166" y="150" type="curve"/>
    </contour>
    <contour>
      <point x="128" y="-205" type="line"/>
      <point x="154" y="-211"/>
      <point x="183" y="-218"/>
      <point x="224" y="-218" type="curve" smooth="yes"/>
      <point x="307" y="-218"/>
      <point x="354" y="-189"/>
      <point x="354" y="-136" type="curve" smooth="yes"/>
      <point x="354" y="-89"/>
      <point x="318" y="-64"/>
      <point x="258" y="-64" type="curve"/>
      <point x="300.784" y="13.546" type="line"/>
      <point x="227.784" y="13.546" type="line"/>
      <point x="175" y="-90" type="line"/>
      <point x="190" y="-88"/>
      <point x="201" y="-86"/>
      <point x="214" y="-86" type="curve" smooth="yes"/>
      <point x="249" y="-86"/>
      <point x="270" y="-101"/>
      <point x="270" y="-130" type="curve" smooth="yes"/>
      <point x="270" y="-158"/>
      <point x="250" y="-177"/>
      <point x="214" y="-177" type="curve" smooth="yes"/>
      <point x="196" y="-177"/>
      <point x="168" y="-172"/>
      <point x="147" y="-166" type="curve"/>
    </contour>
  </outline>
</glyph>
<glyph name="schwa.ss10" format="2">
  <advance width="552"/>
  <anchor x="275" y="-20" name="bottom"/>
  <anchor x="275" y="520" name="top"/>
  <outline>
    <contour>
      <point x="400" y="209" type="line"/>
      <point x="391.899" y="121"/>
      <point x="343.908" y="70"/>
      <point x="272.433" y="70" type="curve" smooth="yes"/>
      <point x="201.978" y="70"/>
      <point x="157.05" y="120"/>
      <point x="151" y="209" type="curve"/>
    </contour>
    <contour>
      <point x="34" y="289" type="line"/>
      <point x="33" y="280"/>
      <point x="31" y="269"/>
      <point x="31" y="245" type="curve" smooth="yes"/>
      <point x="31" y="84"/>
      <point x="122" y="-20"/>
      <point x="276" y="-20" type="curve" smooth="yes"/>
      <point x="430" y="-20"/>
      <point x="522" y="83"/>
      <point x="522" y="246" type="curve" smooth="yes"/>
      <point x="522" y="412"/>
      <point x="426" y="520"/>
      <point x="268" y="520" type="curve" smooth="yes"/>
      <point x="178" y="520"/>
      <point x="102" y="485"/>
      <point x="58" y="426" type="curve"/>
      <point x="89" y="318" type="line"/>
      <point x="149.214" y="398"/>
      <point x="198.675" y="430"/>
      <point x="267.126" y="430" type="curve" smooth="yes"/>
      <point x="355.709" y="430"/>
      <point x="394.071" y="377"/>
      <point x="401" y="289" type="curve"/>
    </contour>
  </outline>
</glyph>
<glyph name="schwa.ss12" format="2">
  <advance width="552"/>
  <anchor x="280" y="-20" name="bottom"/>
  <anchor x="280" y="520" name="top"/>
  <outline>
    <contour>
      <point x="400" y="210" type="line"/>
      <point x="393.899" y="121"/>
      <point x="348.601" y="70"/>
      <point x="272.419" y="70" type="curve" smooth="yes"/>
      <point x="200.355" y="70"/>
      <point x="156.087" y="115"/>
      <point x="149" y="210" type="curve"/>
    </contour>
    <contour>
      <point x="33" y="290" type="line"/>
      <point x="31" y="277.79"/>
      <point x="30" y="265.21"/>
      <point x="30" y="253" type="curve" smooth="yes"/>
      <point x="30" y="108"/>
      <point x="110" y="-20"/>
      <point x="272" y="-20" type="curve" smooth="yes"/>
      <point x="424" y="-20"/>
      <point x="521" y="92"/>
      <point x="521" y="256" type="curve" smooth="yes"/>
      <point x="521" y="397"/>
      <point x="449" y="520"/>
      <point x="274" y="520" type="curve" smooth="yes"/>
      <point x="183" y="520"/>
      <point x="106" y="487"/>
      <point x="61" y="431" type="curve"/>
      <point x="68" y="357" type="line"/>
      <point x="137.834" y="408"/>
      <point x="195.523" y="430"/>
      <point x="273.453" y="430" type="curve" smooth="yes"/>
      <point x="348.347" y="430"/>
      <point x="403" y="371"/>
      <point x="403" y="290" type="curve"/>
    </contour>
  </outline>
</glyph>
<glyph name="sigmafinal.ss12" format="2">
  <advance width="552"/>
  <anchor x="288" y="519" name="topgr"/>
  <outline>
    <contour>
      <point x="482" y="-200" type="line"/>
      <point x="500" y="-180.074"/>
      <point x="524" y="-144.207"/>
      <point x="524" y="-88.413" type="curve" smooth="yes"/>
      <point x="524" y="9.225"/>
      <point x="452.198" y="70"/>
      <point x="329.536" y="70" type="curve" smooth="yes"/>
      <point x="196.901" y="70"/>
      <point x="161" y="142.201"/>
      <point x="161" y="249.499" type="curve" smooth="yes"/>
      <point x="161" y="359.805"/>
      <point x="199" y="430"/>
      <point x="307" y="430" type="curve" smooth="yes"/>
      <point x="363" y="430"/>
      <point x="409" y="411"/>
      <point x="486" y="357" type="curve"/>
      <point x="493" y="431" type="line"/>
      <point x="441" y="490"/>
      <point x="375" y="520"/>
      <point x="292" y="520" type="curve" smooth="yes"/>
      <point x="132" y="520"/>
      <point x="41" y="410"/>
      <point x="41" y="253" type="curve" smooth="yes"/>
      <point x="41" y="99"/>
      <point x="127.761" y="-20"/>
      <point x="288.319" y="-20" type="curve" smooth="yes"/>
      <point x="374.082" y="-20"/>
      <point x="404" y="-54"/>
      <point x="404" y="-103" type="curve" smooth="yes"/>
      <point x="404" y="-142"/>
      <point x="383" y="-165"/>
      <point x="358" y="-200" type="curve"/>
    </contour>
  </outline>
</glyph>
<glyph name="softcyr.loclBGR" format="2">
  <advance width="516"/>
  <anchor x="258" y="-20" name="bottom"/>
  <anchor x="258" y="520" name="top"/>
  <outline>
    <contour>
      <point x="105" y="255" type="line"/>
      <point x="278.653" y="255" type="line" smooth="yes"/>
      <point x="340.004" y="255"/>
      <point x="366" y="220.313"/>
      <point x="366" y="162.5" type="curve" smooth="yes"/>
      <point x="366" y="107"/>
      <point x="331.511" y="70"/>
      <point x="279.778" y="70" type="curve" smooth="yes"/>
      <point x="217.231" y="70"/>
      <point x="189.623" y="98.514"/>
      <point x="189.668" y="146.037" type="curve" smooth="yes"/>
      <point x="190" y="500" type="line"/>
      <point x="70" y="500" type="line"/>
      <point x="69.668" y="153.68" type="line" smooth="yes"/>
      <point x="69.566" y="47.6"/>
      <point x="136.348" y="-20"/>
      <point x="274.8" y="-20" type="curve" smooth="yes"/>
      <point x="413.253" y="-20"/>
      <point x="486" y="53"/>
      <point x="486" y="167.554" type="curve" smooth="yes"/>
      <point x="486" y="278.738"/>
      <point x="413.086" y="345"/>
      <point x="291.906" y="345" type="curve" smooth="yes"/>
      <point x="105" y="345" type="line"/>
    </contour>
  </outline>
</glyph>
<glyph name="turkishlira.osf" format="2">
  <advance width="640"/>
  <outline>
    <contour>
      <point x="21" y="397" type="line"/>
      <point x="443" y="524" type="line"/>
      <point x="443" y="564" type="line"/>
      <point x="21" y="436" type="line"/>
    </contour>
    <contour>
      <point x="21" y="280" type="line"/>
      <point x="443" y="407" type="line"/>
      <point x="443" y="447" type="line"/>
      <point x="21" y="319" type="line"/>
    </contour>
    <contour>
      <point x="134" y="0" type="line"/>
      <point x="305" y="0" type="line" smooth="yes"/>
      <point x="515" y="0"/>
      <point x="596" y="78"/>
      <point x="596" y="283" type="curve"/>
      <point x="495" y="255" type="line"/>
      <point x="495" y="170"/>
      <point x="449" y="100"/>
      <point x="329" y="100" type="curve" smooth="yes"/>
      <point x="254" y="100" type="line"/>
      <point x="254" y="700" type="line"/>
      <point x="134" y="700" type="line"/>
    </contour>
  </outline>
</glyph>
<glyph name="yen.osf" format="2">
  <advance width="662"/>
  <outline>
    <contour>
      <point x="130" y="-43" type="line"/>
      <point x="533" y="-43" type="line"/>
      <point x="533" y="-8" type="line"/>
      <point x="130" y="-8" type="line"/>
    </contour>
    <contour>
      <point x="130" y="88" type="line"/>
      <point x="533" y="88" type="line"/>
      <point x="533" y="123" type="line"/>
      <point x="130" y="123" type="line"/>
    </contour>
    <contour>
      <point x="271" y="-160" type="line" name="ab01"/>
      <point x="391" y="-160" type="line"/>
      <point x="391" y="135" type="line" name="iv04"/>
      <point x="634" y="540" type="line" name="at01"/>
      <point x="494" y="540" type="line"/>
      <point x="331" y="248" type="line" name="iv05"/>
      <point x="168" y="540" type="line" name="at02"/>
      <point x="28" y="540" type="line"/>
      <point x="271" y="135" type="line" name="iv01"/>
    </contour>
  </outline>
</glyph>
<glyph name="zecyr.loclBGR.ss10" format="2">
  <advance width="500"/>
  <outline>
    <contour>
      <point x="37" y="-132" type="line"/>
      <point x="74.983" y="-187"/>
      <point x="156.223" y="-222"/>
      <point x="238.856" y="-222" type="curve" smooth="yes"/>
      <point x="371.542" y="-222"/>
      <point x="460" y="-137.816"/>
      <point x="460" y="-11.54" type="curve" smooth="yes"/>
      <point x="460" y="102.813"/>
      <point x="383.836" y="179.048"/>
      <point x="269.589" y="179.048" type="curve"/>
      <point x="364.95" y="189.56"/>
      <point x="435" y="251.174"/>
      <point x="435" y="345.849" type="curve" smooth="yes"/>
      <point x="435" y="457.56"/>
      <point x="358.14" y="520"/>
      <point x="239.114" y="520" type="curve" smooth="yes"/>
      <point x="150" y="520"/>
      <point x="73" y="485"/>
      <point x="37" y="430" type="curve"/>
      <point x="68" y="322" type="line"/>
      <point x="104" y="394"/>
      <point x="158" y="430"/>
      <point x="231" y="430" type="curve" smooth="yes"/>
      <point x="287.977" y="430"/>
      <point x="318" y="399.528"/>
      <point x="318" y="341.701" type="curve" smooth="yes"/>
      <point x="318" y="284.778"/>
      <point x="287" y="229.711"/>
      <point x="168" y="207" type="curve"/>
      <point x="168" y="122" type="line"/>
      <point x="289.67" y="136.081"/>
      <point x="340" y="80.271"/>
      <point x="340" y="-16.912" type="curve" smooth="yes"/>
      <point x="340" y="-93.321"/>
      <point x="296.44" y="-132"/>
      <point x="235.718" y="-132" type="curve" smooth="yes"/>
      <point x="164.549" y="-132"/>
      <point x="106.62" y="-96"/>
      <point x="68" y="-24" type="curve"/>
    </contour>
  </outline>
</glyph>
